<?xml version="1.0" encoding="UTF-8" standalone="no"?>
<!-- Created with Inkscape (http://www.inkscape.org/) -->

<svg
   width="169.39804mm"
   height="154.4207mm"
   viewBox="0 0 169.39804 154.4207"
   version="1.1"
   id="svg5"
   xml:space="preserve"
   inkscape:export-filename="logo.svg"
   inkscape:export-xdpi="96"
   inkscape:export-ydpi="96"
   xmlns:inkscape="http://www.inkscape.org/namespaces/inkscape"
   xmlns:sodipodi="http://sodipodi.sourceforge.net/DTD/sodipodi-0.dtd"
   xmlns="http://www.w3.org/2000/svg"
   xmlns:svg="http://www.w3.org/2000/svg"><sodipodi:namedview
     id="namedview7"
     pagecolor="#505050"
     bordercolor="#eeeeee"
     borderopacity="1"
     inkscape:showpageshadow="0"
     inkscape:pageopacity="0"
     inkscape:pagecheckerboard="0"
     inkscape:deskcolor="#505050"
     inkscape:document-units="mm"
     showgrid="false" /><defs
     id="defs2" /><g
     inkscape:label="Layer 1"
     inkscape:groupmode="layer"
     id="layer1"
     transform="translate(-28.640816,-97.845159)"><path
       style="fill:#da6f92;fill-opacity:1;stroke:#ffffff;stroke-width:1.33;stroke-linecap:butt;stroke-linejoin:miter;stroke-miterlimit:12.3;stroke-dasharray:none;stroke-opacity:1;paint-order:stroke markers fill"
       d="m 106.19281,193.80758 c -1.02833,0.14094 -1.0615,0.12791 -0.98849,-0.38859 0.0499,-0.35333 0.24395,-0.55838 0.57252,-0.60507 0.27334,-0.0389 0.69955,-0.32816 0.94713,-0.64292 0.41944,-0.53321 0.45016,-0.8942 0.45016,-5.28905 0,-3.37146 -0.0763,-4.79306 -0.26742,-4.9842 -0.14709,-0.14709 -0.44794,-0.26743 -0.66858,-0.26743 -0.25256,0 -0.40114,-0.16508 -0.40114,-0.44571 0,-0.41075 0.14858,-0.44572 1.89428,-0.44572 h 1.89428 l -4.4e-4,5.29283 c -2.3e-4,4.59257 -0.0519,5.39604 -0.39001,6.07283 -0.22862,0.45768 -0.7179,0.94058 -1.18399,1.16859 -0.4369,0.21373 -1.27318,0.45423 -1.8584,0.53444 z m -4.79337,-3.79196 c -0.74999,0.0547 -1.583527,-0.0352 -2.095734,-0.22607 -0.467747,-0.17429 -1.058554,-0.50192 -1.312894,-0.72808 -0.254338,-0.22615 -0.646636,-0.81232 -0.871776,-1.3026 -0.273337,-0.59526 -0.409345,-1.40975 -0.409345,-2.45142 0,-1.04288 0.136848,-1.86131 0.412821,-2.46894 0.227053,-0.49992 0.689225,-1.12635 1.02705,-1.39209 0.337827,-0.26575 1.013574,-0.59069 1.501651,-0.72212 0.488087,-0.13143 1.302347,-0.17131 1.809467,-0.0886 0.50713,0.0827 1.2504,0.34998 1.65173,0.59401 0.40133,0.24401 0.88867,0.75109 1.08297,1.12685 0.19431,0.37575 0.40639,1.26864 0.47127,1.98419 l 0.11797,1.301 h -2.81666 -2.816644 l 4.5e-4,0.61286 c 1.9e-4,0.33706 0.17569,0.96384 0.389987,1.39284 0.26666,0.53378 0.630357,0.8578 1.152207,1.02646 0.44914,0.14517 1.07626,0.17572 1.52582,0.0743 0.4198,-0.0947 0.9937,-0.38863 1.27535,-0.65322 0.34866,-0.32755 0.56186,-0.40058 0.66801,-0.22881 0.0858,0.13875 0.0949,0.49548 0.0202,0.79271 -0.0746,0.29722 -0.4513,0.70365 -0.83712,0.90316 -0.38581,0.19951 -1.26185,0.40361 -1.94676,0.45356 z m -0.65785,-5.48817 h 1.59028 l -0.14285,-1.04228 c -0.0785,-0.57326 -0.30833,-1.22511 -0.51055,-1.44856 -0.20223,-0.22346 -0.59569,-0.40629 -0.87436,-0.40629 -0.27867,0 -0.67267,0.16599 -0.875547,0.36886 -0.20288,0.20288 -0.460747,0.61055 -0.573057,0.90594 -0.1123,0.29538 -0.20419,0.78124 -0.20419,1.0797 0,0.52424 0.0539,0.54263 1.590274,0.54263 z m 14.53594,5.48077 c -0.47571,0.0533 -1.1717,-0.0442 -1.55627,-0.21795 -0.38262,-0.17294 -0.85898,-0.54757 -1.05856,-0.83251 -0.19958,-0.28494 -0.36288,-0.94233 -0.36288,-1.46085 0,-0.51854 0.10883,-1.18165 0.24184,-1.47358 0.13302,-0.29194 0.53817,-0.70583 0.90033,-0.91977 0.38599,-0.22801 1.34646,-0.44101 2.321,-0.51471 l 1.66252,-0.12574 v -0.98533 c 0,-0.54194 -0.10382,-1.17931 -0.23069,-1.4164 -0.14749,-0.27559 -0.46619,-0.43106 -0.88359,-0.43106 -0.41741,0 -0.73609,0.15547 -0.88358,0.43106 -0.12689,0.23709 -0.23069,0.65135 -0.23069,0.92058 0,0.43957 -0.0837,0.47594 -0.82029,0.35641 -0.45115,-0.0732 -0.96558,-0.27842 -1.14317,-0.45601 -0.21174,-0.21173 -0.27186,-0.52625 -0.17465,-0.91358 0.10086,-0.40184 0.40894,-0.69961 0.96364,-0.93137 0.57651,-0.24089 1.36299,-0.31819 2.68462,-0.26388 1.78789,0.0734 1.89756,0.10847 2.51953,0.80459 0.64808,0.72532 0.65029,0.73768 0.65029,3.63606 0,1.59955 0.1038,3.10224 0.2307,3.33932 0.12688,0.2371 0.37759,0.43107 0.55713,0.43107 0.17955,0 0.32645,0.20057 0.32645,0.44571 0,0.40326 -0.14857,0.44571 -1.56,0.44571 -1.0976,0 -1.561,-0.0826 -1.5634,-0.27857 -0.002,-0.15321 -0.0974,-0.42723 -0.21231,-0.60894 -0.17483,-0.2765 -0.31556,-0.22818 -0.86314,0.29644 -0.41559,0.39816 -0.96819,0.662 -1.51483,0.7233 z m 0.38918,-1.02365 c 0.0978,0 0.42221,-0.11134 0.72089,-0.24743 0.29868,-0.13608 0.65439,-0.4918 0.79048,-0.79048 0.13609,-0.29868 0.24743,-0.98962 0.24743,-1.53542 v -0.99237 h -0.84883 c -0.46685,0 -1.0286,0.13146 -1.24832,0.29212 -0.24591,0.17981 -0.44504,0.69602 -0.51792,1.3426 -0.0917,0.81345 -0.0285,1.14981 0.28002,1.49073 0.21914,0.24213 0.47845,0.44025 0.57625,0.44025 z m 22.0304,1.01271 c -0.71982,0.091 -1.20563,0.0147 -1.7587,-0.27634 -0.42029,-0.22115 -0.95344,-0.66057 -1.18479,-0.97647 -0.23135,-0.31592 -0.51187,-0.96778 -0.62339,-1.44857 -0.1115,-0.4808 -0.20074,-1.42575 -0.1983,-2.09988 0.003,-0.67414 0.17555,-1.72482 0.38468,-2.33483 0.2667,-0.7779 0.60639,-1.26041 1.13749,-1.61571 0.53607,-0.35863 1.08319,-0.50659 1.87323,-0.50659 0.85659,0 1.29142,0.13381 1.87064,0.57559 l 0.75463,0.57559 -0.0651,-1.85701 -0.065,-1.85701 -0.72429,-0.21323 c -0.4686,-0.13795 -0.72428,-0.35431 -0.72428,-0.61286 0,-0.35466 0.22567,-0.39962 2.00571,-0.39962 h 2.00571 v 5.74969 c 0,4.17483 0.0732,5.82294 0.26741,6.01711 0.14709,0.14708 0.49809,0.26743 0.78,0.26743 0.364,0 0.51258,0.1292 0.51258,0.44571 0,0.40557 -0.14858,0.44571 -1.64962,0.44571 h -1.64962 l -0.24739,-0.70964 -0.24737,-0.70964 -0.72988,0.70741 c -0.5198,0.50382 -1.01607,0.74359 -1.72439,0.83316 z m 0.83734,-1.1904 c 0.2944,-0.0562 0.70465,-0.36079 0.91169,-0.6767 0.28809,-0.4396 0.3764,-1.08258 0.3764,-2.74036 0,-1.85441 -0.0675,-2.25653 -0.46933,-2.79559 -0.25813,-0.3463 -0.64212,-0.66358 -0.85333,-0.70508 -0.2112,-0.0415 -0.6141,-0.0177 -0.89531,0.0529 -0.29928,0.0752 -0.63851,0.42984 -0.81808,0.85544 -0.18617,0.44125 -0.30412,1.51565 -0.30002,2.73283 0.004,1.20602 0.12096,2.21064 0.29315,2.5197 0.1575,0.2827 0.49633,0.59166 0.75296,0.6866 0.25663,0.0949 0.70747,0.12656 1.00187,0.0703 z m 20.30577,1.16546 c -0.65405,0.0576 -1.57392,-0.003 -2.04416,-0.13392 -0.47025,-0.13128 -1.18253,-0.56621 -1.58284,-0.96655 -0.43729,-0.43727 -0.82998,-1.13331 -0.9836,-1.7434 -0.14064,-0.55855 -0.25571,-1.37802 -0.25571,-1.82102 0,-0.44303 0.11507,-1.26248 0.25571,-1.82103 0.15466,-0.6142 0.54682,-1.30664 0.99229,-1.75211 0.5242,-0.5242 1.08061,-0.808 1.92984,-0.9843 0.87274,-0.18117 1.50169,-0.18157 2.3415,-9.1e-4 0.63154,0.13544 1.41564,0.45657 1.74243,0.71363 0.3268,0.25706 0.77995,0.8764 1.00701,1.37633 0.26945,0.59326 0.41451,1.43387 0.41771,2.42037 0.003,0.86703 -0.14125,1.86122 -0.3379,2.33184 -0.18852,0.45121 -0.51422,1.00983 -0.72375,1.24135 -0.20953,0.23155 -0.64834,0.55925 -0.97515,0.72825 -0.32681,0.16899 -1.12932,0.3544 -1.78338,0.41201 z m -0.502,-0.98777 c 0.40125,0 0.88448,-0.15494 1.07385,-0.34432 0.18938,-0.18937 0.45829,-0.76601 0.59759,-1.28141 0.1393,-0.51542 0.20843,-1.71868 0.15361,-2.67392 -0.0734,-1.27885 -0.2179,-1.89585 -0.54809,-2.33999 -0.30829,-0.41467 -0.68885,-0.62397 -1.21768,-0.66971 -0.5386,-0.0465 -0.88624,0.0628 -1.15942,0.3646 -0.21458,0.23712 -0.49808,1.08239 -0.62997,1.87838 -0.17277,1.04259 -0.17107,1.83756 0.005,2.84321 0.13524,0.76777 0.41433,1.58207 0.6202,1.80956 0.21941,0.24244 0.67621,0.4136 1.10384,0.4136 z m -79.243946,0.89142 c -2.07999,0 -2.228561,-0.0297 -2.228561,-0.44571 0,-0.29541 0.148571,-0.44571 0.440575,-0.44571 0.242316,0 0.59453,-0.23497 0.782699,-0.52215 0.188168,-0.28718 1.177831,-2.76924 2.199252,-5.51568 l 1.857128,-4.99354 h 1.175003 1.175001 l 1.865628,5.21142 c 1.026097,2.86628 1.979261,5.34834 2.118145,5.51569 0.138884,0.16735 0.440807,0.30426 0.670939,0.30426 0.269855,0 0.418426,0.15825 0.418426,0.44571 0,0.42194 -0.148571,0.44571 -2.785701,0.44571 -2.637129,0 -2.785701,-0.0238 -2.785701,-0.44571 0,-0.32074 0.148572,-0.44571 0.529855,-0.44571 0.291417,0 0.649509,-0.14418 0.795758,-0.3204 0.208197,-0.25086 0.181102,-0.58944 -0.124838,-1.55999 l -0.390746,-1.2396 h -2.176475 -2.176475 l -0.378768,1.2016 c -0.208324,0.66088 -0.316881,1.36287 -0.241239,1.55999 0.08451,0.22022 0.397974,0.3584 0.813094,0.3584 0.52699,0 0.675561,0.098 0.675561,0.44571 0,0.416 -0.148571,0.44571 -2.22856,0.44571 z m 3.417125,-4.90283 c 0.898855,0 1.686515,-0.0522 1.750357,-0.11608 0.06384,-0.0638 -0.242387,-1.26727 -0.680513,-2.67427 -0.438127,-1.40701 -0.849718,-2.55487 -0.914647,-2.55081 -0.06493,0.004 -0.494185,1.13226 -0.953901,2.50713 -0.459715,1.37486 -0.835784,2.57496 -0.83571,2.66689 7.5e-5,0.0919 0.735562,0.16714 1.634414,0.16714 z m 10.177096,4.90283 c -2.525702,0 -2.674273,-0.0248 -2.674273,-0.44571 0,-0.29165 0.148571,-0.44571 0.429793,-0.44571 0.236388,0 0.587386,-0.1576 0.779997,-0.3502 0.297001,-0.297 0.350202,-1.09017 0.350202,-5.2212 0,-4.13105 -0.0532,-4.9242 -0.350202,-5.2212 -0.192611,-0.19262 -0.543609,-0.35021 -0.779997,-0.35021 -0.281222,0 -0.429793,-0.15407 -0.429793,-0.44571 0,-0.4127 0.148571,-0.44571 2.005704,-0.44571 h 2.005704 v 5.74969 c 0,4.17483 0.07325,5.82294 0.267428,6.01711 0.147085,0.14708 0.447941,0.26743 0.668568,0.26743 0.252569,0 0.401141,0.16507 0.401141,0.44571 0,0.42095 -0.148572,0.44571 -2.674272,0.44571 z m 31.979845,0 c -2.41428,0 -2.56285,-0.0259 -2.56285,-0.44571 0,-0.24514 0.14326,-0.44571 0.31836,-0.44571 0.1751,0 0.47596,-0.1576 0.66858,-0.3502 0.28435,-0.28436 0.35019,-0.92548 0.35019,-3.4097 0,-2.08247 -0.0854,-3.1449 -0.26742,-3.32692 -0.14708,-0.14709 -0.44795,-0.26743 -0.66857,-0.26743 -0.25257,0 -0.40114,-0.16508 -0.40114,-0.44571 0,-0.40858 0.14857,-0.44572 1.78285,-0.44572 1.75314,0 1.78284,0.009 1.78284,0.55715 0,0.30642 0.0828,0.55713 0.18401,0.55713 0.10121,0 0.41569,-0.24661 0.69886,-0.54803 0.31461,-0.33488 0.87781,-0.60245 1.44811,-0.68797 0.61532,-0.0923 1.20734,-0.0255 1.73776,0.19618 0.46491,0.19426 0.95185,0.6211 1.15358,1.0112 0.25991,0.50261 0.34909,1.35737 0.34909,3.34589 0,1.46896 0.0978,2.92807 0.21734,3.24247 0.13453,0.35386 0.38926,0.57166 0.66857,0.57166 0.30265,0 0.45122,0.14676 0.45122,0.44571 0,0.41075 -0.14857,0.44571 -1.89428,0.44571 h -1.89427 v -3.56569 c 0,-3.26856 -0.0371,-3.60285 -0.44571,-4.01141 -0.24515,-0.24515 -0.60273,-0.44572 -0.79465,-0.44572 -0.19191,0 -0.53237,0.0982 -0.75656,0.21816 -0.22419,0.11998 -0.51845,0.53609 -0.65391,0.92468 -0.13546,0.38859 -0.2463,1.77465 -0.2463,3.08011 0,1.54899 0.0929,2.46649 0.26743,2.64102 0.14709,0.14708 0.44794,0.26743 0.66857,0.26743 0.25257,0 0.40114,0.16507 0.40114,0.44571 0,0.41988 -0.14857,0.44571 -2.56284,0.44571 z m 22.73131,0 c -2.63713,0 -2.7857,-0.0238 -2.7857,-0.44571 0,-0.24514 0.14326,-0.44571 0.31837,-0.44571 0.1751,0 0.47596,-0.1576 0.66856,-0.3502 0.28436,-0.28436 0.35021,-0.92548 0.35021,-3.4097 0,-2.08247 -0.0854,-3.1449 -0.26743,-3.32692 -0.14708,-0.14709 -0.44794,-0.26743 -0.66857,-0.26743 -0.25257,0 -0.40114,-0.16508 -0.40114,-0.44571 0,-0.40623 0.14857,-0.44572 1.677,-0.44572 h 1.67699 l 0.13371,0.66857 c 0.0735,0.36772 0.17274,0.66857 0.22043,0.66857 0.0476,0 0.37792,-0.32592 0.73385,-0.72428 0.57212,-0.6403 0.78074,-0.72428 1.7994,-0.72428 0.94597,0 1.22944,0.0953 1.58344,0.53249 0.27273,0.33683 0.38122,0.70531 0.29523,1.00284 -0.0748,0.25871 -0.33893,0.64587 -0.587,0.86037 -0.24806,0.2145 -0.69063,0.39 -0.98348,0.39 -0.41829,0 -0.53245,-0.11855 -0.53245,-0.5529 0,-0.40046 -0.15011,-0.59057 -0.54448,-0.68954 -0.29946,-0.0752 -0.66069,-0.0648 -0.80274,0.0229 -0.14204,0.0878 -0.39845,0.49515 -0.56979,0.90525 -0.19862,0.47534 -0.31155,1.58032 -0.31155,3.0482 0,1.49376 0.0939,2.39652 0.26742,2.57001 0.14708,0.14708 0.54822,0.26742 0.89143,0.26742 0.47542,0 0.62399,0.10613 0.62399,0.44572 0,0.42193 -0.14857,0.4457 -2.7857,0.4457 z M 70.814919,183.6219 c -0.287903,-0.008 -0.727512,-0.0968 -0.97691,-0.19794 -0.249396,-0.10108 -0.589483,-0.3477 -0.755745,-0.54803 -0.180723,-0.21777 -0.4703,-0.31092 -0.720044,-0.23166 -0.22976,0.0729 -0.763889,0.0184 -1.186952,-0.12128 -0.423063,-0.13962 -1.023199,-0.5557 -1.333637,-0.92464 -0.418453,-0.49731 -0.564434,-0.92659 -0.564434,-1.65982 0,-0.80661 0.134566,-1.13587 0.729569,-1.78512 0.634265,-0.69211 0.868305,-0.7982 1.791614,-0.81216 0.757023,-0.0114 1.248951,0.12213 1.712824,0.46509 0.420243,0.3107 0.977653,0.48114 1.573513,0.48114 0.752243,0 1.062734,0.14 1.680444,0.75771 0.620921,0.62091 0.757711,0.92651 0.757711,1.69275 0,0.51427 -0.171094,1.22467 -0.380207,1.57867 -0.209113,0.354 -0.700624,0.79568 -1.092246,0.98152 -0.391622,0.18585 -0.947596,0.33154 -1.2355,0.32377 z m 0.217965,-0.43836 c 0.528082,0.005 0.92887,-0.18067 1.39285,-0.64465 0.510898,-0.51091 0.651425,-0.85113 0.651425,-1.57714 0,-0.72601 -0.140527,-1.06624 -0.651425,-1.57714 -0.4354,-0.43539 -0.876973,-0.65142 -1.331565,-0.65142 -0.634978,0 -0.67137,0.0438 -0.548066,0.66038 0.07264,0.36319 0.07016,0.90703 -0.0056,1.20852 -0.07567,0.30149 -0.400801,0.86099 -0.722516,1.24332 -0.321714,0.38234 -0.547385,0.72627 -0.501491,0.7643 0.0459,0.038 0.284015,0.18118 0.529157,0.3181 0.245141,0.13692 0.779353,0.252 1.187137,0.25573 z m -3.015602,-0.89338 c 0.337274,0.007 0.377164,-0.11352 0.254043,-0.7698 -0.08033,-0.4282 -0.0849,-1.02218 -0.01017,-1.31996 0.07474,-0.29779 0.385798,-0.83843 0.69124,-1.20143 0.46675,-0.5547 0.505487,-0.70138 0.242807,-0.91938 -0.171899,-0.14267 -0.647419,-0.30948 -1.056711,-0.37069 -0.510092,-0.0762 -0.967688,0.0286 -1.454774,0.33348 -0.465747,0.29151 -0.788793,0.72794 -0.937512,1.26655 -0.172275,0.62393 -0.150748,1.00406 0.08941,1.57885 0.201834,0.48305 0.58147,0.87224 1.048941,1.07535 0.402943,0.17507 0.912668,0.32223 1.132721,0.32703 z m 1.279492,-0.49381 c 0.223204,-0.13939 0.513248,-0.4892 0.644541,-0.77736 0.131294,-0.28816 0.238715,-0.81415 0.238715,-1.16886 0,-0.3547 -0.11671,-0.71705 -0.259357,-0.80522 -0.149491,-0.0924 -0.479902,0.0961 -0.779996,0.44499 -0.346911,0.40331 -0.520639,0.88619 -0.520639,1.44714 0,0.46302 0.06096,0.9028 0.135455,0.97731 0.07451,0.0745 0.318077,0.0214 0.541281,-0.118 z m 39.220626,-2.63157 c -0.18724,-0.007 -0.55217,-0.0997 -0.81099,-0.20426 -0.25881,-0.10458 -0.51963,-0.37775 -0.5796,-0.60704 -0.06,-0.2293 -0.0281,-0.63581 0.0709,-0.90336 0.099,-0.26754 0.45313,-0.555 0.78701,-0.63881 0.37766,-0.0948 0.82343,-0.0315 1.17964,0.16751 0.34303,0.19162 0.60002,0.55411 0.64102,0.90414 0.0475,0.40613 -0.0865,0.69276 -0.43958,0.94011 -0.27941,0.1957 -0.66121,0.34948 -0.84843,0.34171 z m -30.011114,-9.43647 c -0.480905,0.0539 -1.173755,-0.0449 -1.570437,-0.22391 -0.390423,-0.1762 -0.866778,-0.62382 -1.058567,-0.9947 -0.191787,-0.37088 -0.348706,-1.07275 -0.348706,-1.55972 0,-0.62146 0.16763,-1.08461 0.562353,-1.55371 0.39694,-0.47173 0.891807,-0.73896 1.68239,-0.90852 0.61602,-0.13211 1.521247,-0.2402 2.011613,-0.2402 h 0.891578 l -0.06683,-1.25835 c -0.0454,-0.8548 -0.180847,-1.32989 -0.422339,-1.48139 -0.195528,-0.12266 -0.617348,-0.15731 -0.937377,-0.077 -0.449264,0.11276 -0.616186,0.32895 -0.732439,0.94864 -0.145499,0.77557 -0.177188,0.79826 -0.941466,0.67424 -0.434994,-0.0706 -0.936202,-0.27365 -1.113796,-0.45124 -0.20199,-0.20199 -0.271258,-0.52864 -0.18499,-0.87236 0.08319,-0.33146 0.439587,-0.69262 0.898283,-0.91028 0.479856,-0.22771 1.346665,-0.36082 2.349562,-0.36082 0.874051,0 1.928888,0.14193 2.344085,0.31541 0.415194,0.17348 0.863258,0.51788 0.995694,0.76535 0.13565,0.25346 0.240793,1.66636 0.240793,3.23577 0,1.53222 0.0978,3.04308 0.217342,3.35749 0.119536,0.3144 0.370251,0.57164 0.557139,0.57164 0.191228,0 0.339801,0.19488 0.339801,0.44572 0,0.40017 -0.148573,0.44571 -1.454082,0.44571 -1.345961,0 -1.46983,-0.0414 -1.665904,-0.55714 -0.116502,-0.30643 -0.284032,-0.55714 -0.372288,-0.55714 -0.08825,0 -0.430545,0.25876 -0.760645,0.57501 -0.365098,0.34978 -0.937261,0.6128 -1.460759,0.67149 z m 0.877958,-1.14303 c 0.269514,-0.0782 0.665525,-0.34517 0.880024,-0.59323 0.267387,-0.30924 0.389999,-0.82863 0.389999,-1.65206 v -1.20102 h -0.87525 c -0.680109,0 -0.978229,0.13092 -1.337136,0.58719 -0.259446,0.32984 -0.461887,0.91589 -0.461887,1.33714 0,0.45903 0.177315,0.92726 0.457111,1.20705 0.312901,0.31291 0.611707,0.41226 0.947139,0.31493 z m -13.60562,0.96649 c -3.560412,0.0886 -3.621411,0.0822 -3.621411,-0.37848 0,-0.34042 0.140219,-0.46863 0.512569,-0.46863 0.281912,0 0.63291,-0.12033 0.779995,-0.26742 0.190798,-0.1908 0.267427,-1.59112 0.267427,-4.88692 0,-3.90239 -0.05436,-4.67384 -0.350201,-4.96969 -0.192612,-0.19261 -0.54361,-0.35019 -0.779997,-0.35019 -0.243253,0 -0.429793,-0.15293 -0.429793,-0.35234 0,-0.31079 0.468552,-0.34363 3.974013,-0.27857 3.968506,0.0737 3.975533,0.0747 5.069975,0.74342 0.821085,0.50169 1.253833,0.97679 1.725409,1.89427 0.586453,1.14098 0.623605,1.36924 0.543919,3.34175 -0.06453,1.59725 -0.200399,2.33604 -0.553323,3.00857 -0.257287,0.49028 -0.752764,1.16188 -1.101059,1.49245 -0.348295,0.33057 -1.034404,0.77667 -1.524689,0.99135 -0.692515,0.30321 -1.699491,0.41042 -4.512834,0.48043 z m 1.585652,-1.06996 c 0.876193,0 1.354205,-0.12471 1.789066,-0.46678 0.326376,-0.25672 0.816256,-0.88351 1.088621,-1.39285 0.421467,-0.78817 0.495208,-1.27452 0.495208,-3.26606 0,-2.06577 -0.06304,-2.45004 -0.537926,-3.27905 -0.305628,-0.53354 -0.849484,-1.08691 -1.259388,-1.28142 -0.396806,-0.1883 -1.182662,-0.34237 -1.746349,-0.34237 h -1.024887 v 5.01427 5.01426 z m 20.532813,1.11428 c -2.414274,0 -2.562845,-0.0259 -2.562845,-0.44571 0,-0.28063 0.148571,-0.44572 0.401141,-0.44572 0.220628,0 0.521483,-0.12033 0.668568,-0.26742 0.182711,-0.18271 0.267427,-1.26285 0.267427,-3.4097 0,-2.14684 -0.08472,-3.22699 -0.267427,-3.4097 -0.147085,-0.14708 -0.44794,-0.26743 -0.668568,-0.26743 -0.25257,0 -0.401141,-0.16507 -0.401141,-0.44571 0,-0.40805 0.148571,-0.4457 1.758689,-0.4457 1.701095,0 1.76338,0.0187 1.901887,0.57054 l 0.143198,0.57055 0.667519,-0.56168 c 0.367133,-0.30893 1.019872,-0.62778 1.450525,-0.70857 0.47568,-0.0892 1.09787,-0.0271 1.585209,0.15842 0.44121,0.16793 1.009474,0.58294 1.262808,0.92225 0.398474,0.53372 0.476856,1.04472 0.581077,3.78841 0.114692,3.01933 0.144524,3.18202 0.621897,3.39145 0.275784,0.12099 0.501426,0.39678 0.501426,0.61285 0,0.34252 -0.22851,0.39287 -1.782849,0.39287 h -1.782848 l -0.01257,-3.06427 c -0.0072,-1.75769 -0.125995,-3.39481 -0.278569,-3.83949 -0.178819,-0.52116 -0.468689,-0.8463 -0.884489,-0.99213 -0.531762,-0.18651 -0.703447,-0.132 -1.224234,0.3888 -0.575879,0.57588 -0.609693,0.73046 -0.686068,3.13639 -0.05137,1.61805 0.01121,2.70171 0.173507,3.00497 0.139604,0.26087 0.450873,0.4743 0.691702,0.4743 0.289301,0 0.437872,0.15124 0.437872,0.44572 0,0.41987 -0.148571,0.44571 -2.562844,0.44571 z"
       id="path464"
       inkscape:export-filename="logo.svg"
       inkscape:export-xdpi="263.61069"
       inkscape:export-ydpi="263.61069" /></g></svg>
